<svg width="415" height="420" viewBox="0 0 415 420" fill="none" xmlns="http://www.w3.org/2000/svg">
<rect width="415" height="420" rx="50" fill="white"/>
<path d="M108.271 176.902V272H91.9238V176.902H108.271ZM90.6934 151.678C90.6934 149.041 91.4844 146.814 93.0664 144.998C94.707 143.182 97.1094 142.273 100.273 142.273C103.379 142.273 105.752 143.182 107.393 144.998C109.092 146.814 109.941 149.041 109.941 151.678C109.941 154.197 109.092 156.365 107.393 158.182C105.752 159.939 103.379 160.818 100.273 160.818C97.1094 160.818 94.707 159.939 93.0664 158.182C91.4844 156.365 90.6934 154.197 90.6934 151.678ZM184.121 144.031V272H167.422V144.031H184.121ZM225.254 144.031V157.918H126.377V144.031H225.254Z" fill="#1D4A71"/>
<path d="M291.523 144.031V272H274.824V144.031H291.523ZM332.656 144.031V157.918H233.779V144.031H332.656Z" fill="#5BC2AC"/>
</svg>
